<?xml version="1.0" encoding="UTF-8" standalone="no"?>
<!DOCTYPE svg PUBLIC "-//W3C//DTD SVG 1.1//EN"
 "http://www.w3.org/Graphics/SVG/1.1/DTD/svg11.dtd">
<!-- Generated by graphviz version 2.43.0 (0)
 -->
<!-- Title: %3 Pages: 1 -->
<svg width="437pt" height="260pt"
 viewBox="0.00 0.00 436.99 260.00" xmlns="http://www.w3.org/2000/svg" xmlns:xlink="http://www.w3.org/1999/xlink">
<g id="graph0" class="graph" transform="scale(1 1) rotate(0) translate(4 256)">
<title>%3</title>
<polygon fill="white" stroke="transparent" points="-4,4 -4,-256 432.99,-256 432.99,4 -4,4"/>
<!-- fact -->
<g id="node1" class="node">
<title>fact</title>
<ellipse fill="none" stroke="black" cx="124.25" cy="-234" rx="30.59" ry="18"/>
<text text-anchor="middle" x="124.25" y="-230.3" font-family="Times,serif" font-size="14.00">Fact</text>
</g>
<!-- rule -->
<g id="node2" class="node">
<title>rule</title>
<ellipse fill="none" stroke="black" cx="82.25" cy="-162" rx="31.7" ry="18"/>
<text text-anchor="middle" x="82.25" y="-158.3" font-family="Times,serif" font-size="14.00">Rule</text>
</g>
<!-- fact&#45;&gt;rule -->
<g id="edge1" class="edge">
<title>fact&#45;&gt;rule</title>
<path fill="none" stroke="black" d="M114.5,-216.76C109.36,-208.19 102.94,-197.49 97.19,-187.9"/>
<polygon fill="black" stroke="black" points="100.08,-185.92 91.93,-179.15 94.08,-189.52 100.08,-185.92"/>
</g>
<!-- term -->
<g id="node3" class="node">
<title>term</title>
<ellipse fill="none" stroke="black" cx="166.25" cy="-162" rx="34.39" ry="18"/>
<text text-anchor="middle" x="166.25" y="-158.3" font-family="Times,serif" font-size="14.00">Term</text>
</g>
<!-- fact&#45;&gt;term -->
<g id="edge2" class="edge">
<title>fact&#45;&gt;term</title>
<path fill="none" stroke="black" d="M133.99,-216.76C139.05,-208.32 145.37,-197.8 151.06,-188.31"/>
<polygon fill="black" stroke="black" points="154.12,-190.01 156.27,-179.63 148.12,-186.41 154.12,-190.01"/>
</g>
<!-- complexTerm -->
<g id="node4" class="node">
<title>complexTerm</title>
<ellipse fill="none" stroke="black" cx="80.25" cy="-90" rx="75.29" ry="18"/>
<text text-anchor="middle" x="80.25" y="-86.3" font-family="Times,serif" font-size="14.00">ComplexTerm</text>
</g>
<!-- term&#45;&gt;complexTerm -->
<g id="edge4" class="edge">
<title>term&#45;&gt;complexTerm</title>
<path fill="none" stroke="black" d="M148.43,-146.5C136.85,-137.08 121.53,-124.6 108.34,-113.87"/>
<polygon fill="black" stroke="black" points="110.42,-111.05 100.45,-107.45 106,-116.48 110.42,-111.05"/>
</g>
<!-- simpleTerm -->
<g id="node6" class="node">
<title>simpleTerm</title>
<ellipse fill="none" stroke="black" cx="252.25" cy="-90" rx="66.89" ry="18"/>
<text text-anchor="middle" x="252.25" y="-86.3" font-family="Times,serif" font-size="14.00">SimpleTerm</text>
</g>
<!-- term&#45;&gt;simpleTerm -->
<g id="edge3" class="edge">
<title>term&#45;&gt;simpleTerm</title>
<path fill="none" stroke="black" d="M184.06,-146.5C195.72,-137.01 211.18,-124.43 224.43,-113.64"/>
<polygon fill="black" stroke="black" points="226.8,-116.23 232.34,-107.2 222.38,-110.8 226.8,-116.23"/>
</g>
<!-- predicate -->
<g id="node5" class="node">
<title>predicate</title>
<ellipse fill="none" stroke="black" cx="55.25" cy="-18" rx="55.49" ry="18"/>
<text text-anchor="middle" x="55.25" y="-14.3" font-family="Times,serif" font-size="14.00">Predicate</text>
</g>
<!-- complexTerm&#45;&gt;predicate -->
<g id="edge5" class="edge">
<title>complexTerm&#45;&gt;predicate</title>
<path fill="none" stroke="black" d="M74.19,-72.05C71.38,-64.18 67.97,-54.62 64.81,-45.79"/>
<polygon fill="black" stroke="black" points="68.07,-44.52 61.41,-36.28 61.48,-46.87 68.07,-44.52"/>
</g>
<!-- atom -->
<g id="node7" class="node">
<title>atom</title>
<ellipse fill="none" stroke="black" cx="163.25" cy="-18" rx="35.19" ry="18"/>
<text text-anchor="middle" x="163.25" y="-14.3" font-family="Times,serif" font-size="14.00">Atom</text>
</g>
<!-- simpleTerm&#45;&gt;atom -->
<g id="edge6" class="edge">
<title>simpleTerm&#45;&gt;atom</title>
<path fill="none" stroke="black" d="M231.6,-72.76C219.1,-62.93 203.03,-50.29 189.61,-39.74"/>
<polygon fill="black" stroke="black" points="191.68,-36.91 181.66,-33.48 187.36,-42.42 191.68,-36.91"/>
</g>
<!-- number -->
<g id="node8" class="node">
<title>number</title>
<ellipse fill="none" stroke="black" cx="265.25" cy="-18" rx="48.99" ry="18"/>
<text text-anchor="middle" x="265.25" y="-14.3" font-family="Times,serif" font-size="14.00">Number</text>
</g>
<!-- simpleTerm&#45;&gt;number -->
<g id="edge7" class="edge">
<title>simpleTerm&#45;&gt;number</title>
<path fill="none" stroke="black" d="M255.46,-71.7C256.89,-63.98 258.61,-54.71 260.21,-46.11"/>
<polygon fill="black" stroke="black" points="263.68,-46.58 262.07,-36.1 256.8,-45.3 263.68,-46.58"/>
</g>
<!-- variable -->
<g id="node9" class="node">
<title>variable</title>
<ellipse fill="none" stroke="black" cx="380.25" cy="-18" rx="48.99" ry="18"/>
<text text-anchor="middle" x="380.25" y="-14.3" font-family="Times,serif" font-size="14.00">Variable</text>
</g>
<!-- simpleTerm&#45;&gt;variable -->
<g id="edge8" class="edge">
<title>simpleTerm&#45;&gt;variable</title>
<path fill="none" stroke="black" d="M280.34,-73.64C299.35,-63.24 324.63,-49.42 344.99,-38.28"/>
<polygon fill="black" stroke="black" points="346.87,-41.24 353.97,-33.37 343.51,-35.1 346.87,-41.24"/>
</g>
</g>
</svg>
